PathFileType	4	(X/Y/Z)	E:\Qualisys_Data\Carbon_Farble_Plate\Data\Amateur_Runner\S14\T1\S14T1V21_c3d.trc
DataRate	CameraRate	NumFrames	NumMarkers	Units	OrigDataRate	OrigDataStartFrame	OrigNumFrames
200.000000	200.000000	4	39	mm	200.000000	76	306
Frame#	Time	LSHO			RSHO			LICST			RICST			LASIS			LHEEL			RASIS			LTROC			RTROC			SACR			LTH1			LSK4			LTH2			LTH3			RHM5			LSK2			LTH4			RTH1			LTOE			RTH2			RTH3			RTH4			LLEP			RLEP			LSK1			LSK3			RSK1			LHM5			RSK2			LFT1			RSK3			RSK4			LLME			RLME			RTOE			RHEEL			RFT1			RFT2			LFT2			
		X1	Y1	Z1	X2	Y2	Z2	X3	Y3	Z3	X4	Y4	Z4	X5	Y5	Z5	X6	Y6	Z6	X7	Y7	Z7	X8	Y8	Z8	X9	Y9	Z9	X10	Y10	Z10	X11	Y11	Z11	X12	Y12	Z12	X13	Y13	Z13	X14	Y14	Z14	X15	Y15	Z15	X16	Y16	Z16	X17	Y17	Z17	X18	Y18	Z18	X19	Y19	Z19	X20	Y20	Z20	X21	Y21	Z21	X22	Y22	Z22	X23	Y23	Z23	X24	Y24	Z24	X25	Y25	Z25	X26	Y26	Z26	X27	Y27	Z27	X28	Y28	Z28	X29	Y29	Z29	X30	Y30	Z30	X31	Y31	Z31	X32	Y32	Z32	X33	Y33	Z33	X34	Y34	Z34	X35	Y35	Z35	X36	Y36	Z36	X37	Y37	Z37	X38	Y38	Z38	X39	Y39	Z39	

77	0.38	-1408.5517578125	1485.608032226562	-491.5848999023438	-1295.110473632812	1479.879638671875	-224.9889068603516	-1376.479248046875	1022.458618164062	-463.6706848144531	-1329.15087890625	1030.9130859375	-195.2653350830078	-1331.862182617188	973.26806640625	-436.5664672851562	-1200.970703125	111.9300003051758	-329.7504272460938	-1309.970458984375	984.4072875976562	-210.4120330810547	-1464.063598632812	897.2520141601562	-474.0375366210938	-1466.009887695312	956.2125244140624	-148.1752777099609	-1491.428100585938	1033.637084960938	-320.9027099609375	-1307.831665039062	690.8572998046875	-483.2147521972656	-1254.262817382812	326.8512573242188	-413.9795532226562	-1370.3720703125	665.9464721679688	-442.5043029785156	-1252.271362304688	611.5216674804688	-450.8494873046875	-1964.533203125	267.4956359863281	-160.0701141357422	-1275.994750976562	421.8503723144531	-430.5978088378906	-1324.095458984375	582.9170532226562	-422.1426391601562	-1417.521606445312	686.6656494140625	-161.452880859375	-962.281494140625	201.2937316894531	-383.4559936523438	-1487.350219726562	716.5982055664062	-144.8513793945312	-1455.092407226562	594.737060546875	-182.0868835449219	-1531.558959960938	625.9910888671875	-162.1969299316406	-1247.770629882812	542.0166015625	-434.5972595214844	-1546.108154296875	554.0653686523438	-170.7612915039062	-1195.853149414062	440.4113159179688	-433.7720336914062	-1174.867797851562	342.0616760253906	-421.4893798828125	-1640.3994140625	471.4028625488281	-165.333740234375	-1021.493225097656	153.6166229248047	-434.6030883789062	-1678.98388671875	547.9884033203125	-164.89404296875	-1177.71484375	96.17330169677734	-305.7806701660156	-1735.435668945312	430.6517944335938	-175.7150573730469	-1765.382934570312	505.5122985839844	-176.5919494628906	-1163.672119140625	158.0539855957031	-395.6551818847656	-1909.984497070312	405.2463989257812	-190.2672119140625	-1946.312133789062	192.0572052001953	-216.5425262451172	-1934.134399414062	450.3039855957031	-247.4014129638672	-1961.082153320312	432.5435485839844	-280.755859375	-1959.34912109375	451.4854125976562	-224.8066711425781	-1189.795288085938	84.24357604980469	-357.5934753417969
78	0.385	-1387.821655273438	1482.172241210938	-492.6805114746094	-1275.075073242188	1477.10107421875	-225.3229522705078	-1356.921264648438	1019.450256347656	-463.7983093261719	-1309.475952148438	1029.288208007812	-194.2391204833984	-1311.26904296875	971.4539794921876	-436.7720031738281	-1183.495971679688	107.7591171264648	-327.19482421875	-1289.914184570312	982.5331420898438	-210.4983978271484	-1443.524169921875	893.861083984375	-472.9394836425781	-1445.610473632812	952.998291015625	-147.8308258056641	-1471.8759765625	1030.838989257812	-321.3531494140625	-1289.25634765625	686.8262329101562	-482.5995178222656	-1237.086547851562	322.5738830566406	-412.6343078613281	-1352.535522460938	662.7064819335938	-441.1561584472656	-1234.455078125	607.6991577148438	-450.1948852539062	-1946.03125	275.168701171875	-161.3817291259766	-1258.705200195312	417.8941345214844	-429.5268249511719	-1304.869750976562	579.4031372070312	-420.1976928710938	-1393.871215820312	683.4366455078125	-161.0167694091797	-945.4067993164062	197.5568084716797	-383.2955627441406	-1463.793579101562	712.7544555664062	-144.3041229248047	-1429.528198242188	591.24072265625	-181.5062866210938	-1506.98583984375	621.223388671875	-161.7857208251953	-1230.118286132812	538.6903076171875	-433.9755249023438	-1520.835327148438	549.683349609375	-170.1968994140625	-1178.677612304688	436.3584899902344	-432.8545227050781	-1157.581787109375	337.2369384765625	-421.0323791503906	-1616.872314453125	467.948486328125	-166.1087646484375	-1005.3955078125	149.4206390380859	-433.78515625	-1652.5830078125	546.463134765625	-164.4680328369141	-1160.205444335938	92.596435546875	-303.2008361816406	-1713.426391601562	431.1315307617188	-176.1699676513672	-1740.346069335938	506.4190368652344	-176.5534820556641	-1146.782592773438	153.9764556884766	-393.7184448242188	-1886.965942382812	411.6146240234375	-190.5155334472656	-1928.87451171875	199.6046600341797	-216.1104583740234	-1908.526733398438	457.1136474609375	-249.23974609375	-1937.330444335938	439.7410278320312	-281.6867370605469	-1934.743896484375	458.4655456542969	-225.3595275878906	-1172.933471679688	80.5205078125	-355.1437683105469
79	0.39	-1367.233032226562	1478.354370117188	-494.1937866210938	-1255.22607421875	1474.167114257812	-226.2211761474609	-1336.47998046875	1016.944152832031	-463.6455688476562	-1289.797607421875	1026.361938476562	-194.4350280761719	-1291.779418945312	968.5308837890624	-436.7709350585938	-1167.840454101562	103.5198135375977	-324.0197143554688	-1269.961791992188	980.4093017578124	-210.6922760009766	-1424.483642578125	890.6317749023438	-473.1579895019531	-1424.913452148438	949.2332153320312	-146.5995941162109	-1452.524291992188	1027.096801757812	-321.194091796875	-1270.67236328125	683.0368041992188	-481.4504089355469	-1220.331665039062	318.2980346679688	-411.1796264648438	-1333.283203125	659.4447631835938	-439.9455261230469	-1216.41357421875	603.9579467773438	-448.9954223632812	-1926.829833984375	282.6591796875	-161.0426483154297	-1241.504150390625	414.4920043945312	-428.5523681640625	-1286.72119140625	576.8065185546875	-417.7465515136719	-1369.888061523438	679.6854858398438	-161.0815582275391	-930.3589477539062	192.7881622314453	-382.6068725585938	-1439.876953125	707.626953125	-143.4922485351562	-1404.274536132812	587.1810302734375	-181.1581268310547	-1482.23828125	616.1716918945312	-160.98974609375	-1212.393188476562	534.5736083984375	-432.9268493652344	-1494.663940429688	544.469970703125	-168.9734344482422	-1161.25927734375	432.0827331542969	-431.9817504882812	-1141.342163085938	333.5174255371094	-418.9707336425781	-1592.20947265625	465.5052490234375	-165.5108795166016	-990.6402587890624	144.2895660400391	-432.1812438964844	-1625.599853515625	544.4277954101562	-163.4944305419922	-1144.687622070312	88.769287109375	-300.6807556152344	-1689.941284179688	431.0486145019531	-176.1617889404297	-1715.183837890625	507.6716613769531	-176.2318115234375	-1131.247680664062	149.3294982910156	-391.2816162109375	-1863.58154296875	417.3979187011719	-190.9411926269531	-1911.40673828125	206.6046447753906	-216.8077239990234	-1883.38427734375	463.4454956054688	-249.9141387939453	-1913.164916992188	446.6829528808594	-282.4823303222656	-1910.24267578125	466.3121337890625	-225.3034515380859	-1157.277099609375	75.58877563476562	-351.59619140625
80	0.395	-1346.840942382812	1474.45263671875	-495.7052001953125	-1235.698974609375	1470.8955078125	-226.5873718261719	-1316.7099609375	1014.241149902344	-464.1707763671875	-1270.197998046875	1023.875244140625	-194.3287506103516	-1271.999389648438	966.0036010742188	-436.8417663574219	-1153.806274414062	99.18183135986328	-321.089111328125	-1250.101684570312	977.7946166992188	-210.6028289794922	-1405.301391601562	887.3360595703125	-472.8969116210938	-1404.21923828125	945.1512451171876	-146.3965606689453	-1432.855102539062	1023.746887207031	-321.2740783691406	-1250.45654296875	680.0078735351562	-479.5264587402344	-1204.201171875	314.6324768066406	-409.5539855957031	-1314.9052734375	656.84130859375	-439.4111022949219	-1197.858032226562	599.9812622070312	-447.6460266113281	-1905.57275390625	289.37060546875	-161.6325836181641	-1224.666381835938	410.6834106445312	-427.6896667480469	-1268.263916015625	573.1897583007812	-417.009033203125	-1345.728759765625	676.3910522460938	-160.48681640625	-916.4362182617188	186.8573455810547	-381.8060607910156	-1417.042358398438	703.0719604492188	-143.4332122802734	-1378.980712890625	582.5509643554688	-180.2356414794922	-1456.601928710938	610.400634765625	-160.4576568603516	-1193.975463867188	530.6924438476562	-432.4112548828125	-1467.944458007812	539.1118774414062	-167.3493804931641	-1144.11279296875	427.2456359863281	-431.2799072265625	-1124.756225585938	327.9561157226562	-417.4148254394531	-1566.884521484375	462.9350891113281	-164.7995300292969	-976.8013916015624	138.0097808837891	-430.9277954101562	-1598.570190429688	542.3907470703125	-162.8963775634766	-1130.556640625	84.52098846435547	-297.9657592773438	-1665.5849609375	430.3290710449219	-176.0564575195312	-1688.756713867188	507.4921264648438	-175.9303741455078	-1117.445678710938	144.3138275146484	-388.698974609375	-1840.584838867188	421.9244689941406	-191.8674774169922	-1892.39599609375	213.0680694580078	-217.2599639892578	-1857.91064453125	469.2255249023438	-251.2469024658203	-1887.808837890625	453.2527770996094	-283.5188903808594	-1885.23095703125	472.5179748535156	-226.3103790283203	-1143.759033203125	71.30110168457031	-349.0166625976562
